<mxfile host="app.diagrams.net" agent="Mozilla/5.0 (Windows NT 10.0; Win64; x64; rv:129.0) Gecko/20100101 Firefox/129.0" version="24.7.8">
  <diagram name="Page-1" id="oqdl3CPkqT0f2W-JLEm6">
    <mxGraphModel dx="880" dy="434" grid="1" gridSize="10" guides="1" tooltips="1" connect="1" arrows="1" fold="1" page="1" pageScale="1" pageWidth="850" pageHeight="1100" background="#ffffff" math="0" shadow="0">
      <root>
        <mxCell id="0" />
        <mxCell id="1" parent="0" />
        <mxCell id="AbVsz41TD_JJC3Mar6eJ-1" value="" style="shape=actor;whiteSpace=wrap;html=1;" parent="1" vertex="1">
          <mxGeometry x="10" y="190" width="40" height="50" as="geometry" />
        </mxCell>
        <mxCell id="AbVsz41TD_JJC3Mar6eJ-2" value="" style="endArrow=classic;html=1;rounded=0;" parent="1" edge="1">
          <mxGeometry width="50" height="50" relative="1" as="geometry">
            <mxPoint x="50" y="230" as="sourcePoint" />
            <mxPoint x="100" y="230" as="targetPoint" />
          </mxGeometry>
        </mxCell>
        <mxCell id="AbVsz41TD_JJC3Mar6eJ-3" value="" style="whiteSpace=wrap;html=1;aspect=fixed;" parent="1" vertex="1">
          <mxGeometry x="100" y="170" width="140" height="140" as="geometry" />
        </mxCell>
        <mxCell id="AbVsz41TD_JJC3Mar6eJ-7" value="Credit Card" style="rounded=0;whiteSpace=wrap;html=1;" parent="1" vertex="1">
          <mxGeometry x="125" y="180" width="95" height="20" as="geometry" />
        </mxCell>
        <mxCell id="AbVsz41TD_JJC3Mar6eJ-9" value="&lt;b&gt;&lt;i&gt;Payment Gateway&lt;/i&gt;&lt;/b&gt;" style="text;whiteSpace=wrap;html=1;" parent="1" vertex="1">
          <mxGeometry x="110" y="140" width="120" height="30" as="geometry" />
        </mxCell>
        <mxCell id="AbVsz41TD_JJC3Mar6eJ-10" value="Debit Card" style="rounded=0;whiteSpace=wrap;html=1;" parent="1" vertex="1">
          <mxGeometry x="125" y="210" width="95" height="20" as="geometry" />
        </mxCell>
        <mxCell id="AbVsz41TD_JJC3Mar6eJ-11" value="Internet Banking" style="rounded=0;whiteSpace=wrap;html=1;" parent="1" vertex="1">
          <mxGeometry x="125" y="240" width="95" height="20" as="geometry" />
        </mxCell>
        <mxCell id="AbVsz41TD_JJC3Mar6eJ-12" value="PayPal" style="rounded=0;whiteSpace=wrap;html=1;" parent="1" vertex="1">
          <mxGeometry x="125" y="270" width="95" height="20" as="geometry" />
        </mxCell>
        <mxCell id="AbVsz41TD_JJC3Mar6eJ-14" value="" style="whiteSpace=wrap;html=1;aspect=fixed;" parent="1" vertex="1">
          <mxGeometry x="370" y="50" width="480" height="480" as="geometry" />
        </mxCell>
        <mxCell id="AbVsz41TD_JJC3Mar6eJ-15" value="&lt;b&gt;&lt;i&gt;PayPal Payment Integration service&lt;br&gt;&lt;/i&gt;&lt;/b&gt;" style="text;whiteSpace=wrap;html=1;" parent="1" vertex="1">
          <mxGeometry x="530" y="20" width="230" height="30" as="geometry" />
        </mxCell>
        <mxCell id="AbVsz41TD_JJC3Mar6eJ-16" value="" style="endArrow=classic;html=1;rounded=0;entryX=0.002;entryY=0.321;entryDx=0;entryDy=0;entryPerimeter=0;" parent="1" target="AbVsz41TD_JJC3Mar6eJ-14" edge="1">
          <mxGeometry width="50" height="50" relative="1" as="geometry">
            <mxPoint x="240" y="200" as="sourcePoint" />
            <mxPoint x="360" y="200" as="targetPoint" />
          </mxGeometry>
        </mxCell>
        <mxCell id="AbVsz41TD_JJC3Mar6eJ-18" value="" style="endArrow=classic;html=1;rounded=0;entryX=1;entryY=0.75;entryDx=0;entryDy=0;" parent="1" target="AbVsz41TD_JJC3Mar6eJ-3" edge="1">
          <mxGeometry width="50" height="50" relative="1" as="geometry">
            <mxPoint x="370" y="275" as="sourcePoint" />
            <mxPoint x="450" y="210" as="targetPoint" />
          </mxGeometry>
        </mxCell>
        <mxCell id="AbVsz41TD_JJC3Mar6eJ-19" value="&lt;b&gt;&lt;i&gt;HTTP Request&lt;br&gt;&lt;/i&gt;&lt;/b&gt;" style="text;whiteSpace=wrap;html=1;" parent="1" vertex="1">
          <mxGeometry x="260" y="160" width="120" height="30" as="geometry" />
        </mxCell>
        <mxCell id="AbVsz41TD_JJC3Mar6eJ-20" value="&lt;b&gt;&lt;i&gt;HTTP Response&lt;/i&gt;&lt;/b&gt;" style="text;whiteSpace=wrap;html=1;" parent="1" vertex="1">
          <mxGeometry x="260" y="280" width="120" height="30" as="geometry" />
        </mxCell>
        <mxCell id="AbVsz41TD_JJC3Mar6eJ-21" value="&lt;div&gt;REST API&lt;/div&gt;&lt;div&gt;Controller&lt;br&gt;&lt;/div&gt;" style="rounded=0;whiteSpace=wrap;html=1;" parent="1" vertex="1">
          <mxGeometry x="380" y="160" width="70" height="160" as="geometry" />
        </mxCell>
        <mxCell id="AbVsz41TD_JJC3Mar6eJ-22" value="Authentication Service" style="ellipse;whiteSpace=wrap;html=1;aspect=fixed;" parent="1" vertex="1">
          <mxGeometry x="480" y="70" width="80" height="80" as="geometry" />
        </mxCell>
        <mxCell id="AbVsz41TD_JJC3Mar6eJ-23" value="Payment Service" style="ellipse;whiteSpace=wrap;html=1;aspect=fixed;" parent="1" vertex="1">
          <mxGeometry x="480" y="160" width="80" height="80" as="geometry" />
        </mxCell>
        <mxCell id="AbVsz41TD_JJC3Mar6eJ-24" value="Refund Service" style="ellipse;whiteSpace=wrap;html=1;aspect=fixed;" parent="1" vertex="1">
          <mxGeometry x="480" y="250" width="80" height="80" as="geometry" />
        </mxCell>
        <mxCell id="AbVsz41TD_JJC3Mar6eJ-25" value="&lt;div&gt;Transaction&lt;/div&gt;&lt;div&gt;Service&lt;br&gt;&lt;/div&gt;" style="ellipse;whiteSpace=wrap;html=1;aspect=fixed;" parent="1" vertex="1">
          <mxGeometry x="490" y="400" width="80" height="80" as="geometry" />
        </mxCell>
        <mxCell id="AbVsz41TD_JJC3Mar6eJ-31" value="" style="endArrow=classic;startArrow=classic;html=1;rounded=0;entryX=0;entryY=1;entryDx=0;entryDy=0;" parent="1" target="AbVsz41TD_JJC3Mar6eJ-22" edge="1">
          <mxGeometry width="50" height="50" relative="1" as="geometry">
            <mxPoint x="450" y="180" as="sourcePoint" />
            <mxPoint x="500" y="130" as="targetPoint" />
          </mxGeometry>
        </mxCell>
        <mxCell id="AbVsz41TD_JJC3Mar6eJ-32" value="" style="endArrow=classic;startArrow=classic;html=1;rounded=0;entryX=0.013;entryY=0.725;entryDx=0;entryDy=0;entryPerimeter=0;" parent="1" target="AbVsz41TD_JJC3Mar6eJ-23" edge="1">
          <mxGeometry width="50" height="50" relative="1" as="geometry">
            <mxPoint x="450" y="240" as="sourcePoint" />
            <mxPoint x="500" y="190" as="targetPoint" />
          </mxGeometry>
        </mxCell>
        <mxCell id="AbVsz41TD_JJC3Mar6eJ-34" value="" style="endArrow=classic;startArrow=classic;html=1;rounded=0;entryX=0;entryY=0.5;entryDx=0;entryDy=0;exitX=1;exitY=0.75;exitDx=0;exitDy=0;" parent="1" source="AbVsz41TD_JJC3Mar6eJ-21" target="AbVsz41TD_JJC3Mar6eJ-24" edge="1">
          <mxGeometry width="50" height="50" relative="1" as="geometry">
            <mxPoint x="460" y="280" as="sourcePoint" />
            <mxPoint x="450" y="220" as="targetPoint" />
          </mxGeometry>
        </mxCell>
        <mxCell id="AbVsz41TD_JJC3Mar6eJ-35" value="" style="endArrow=classic;startArrow=classic;html=1;rounded=0;entryX=0.038;entryY=0.375;entryDx=0;entryDy=0;entryPerimeter=0;" parent="1" target="AbVsz41TD_JJC3Mar6eJ-25" edge="1">
          <mxGeometry width="50" height="50" relative="1" as="geometry">
            <mxPoint x="450" y="310" as="sourcePoint" />
            <mxPoint x="500" y="260" as="targetPoint" />
          </mxGeometry>
        </mxCell>
        <mxCell id="AbVsz41TD_JJC3Mar6eJ-36" value="PayPal SDK" style="rounded=0;whiteSpace=wrap;html=1;" parent="1" vertex="1">
          <mxGeometry x="900" y="60" width="120" height="280" as="geometry" />
        </mxCell>
        <mxCell id="AbVsz41TD_JJC3Mar6eJ-39" value="" style="endArrow=classic;startArrow=classic;html=1;rounded=0;" parent="1" edge="1">
          <mxGeometry width="50" height="50" relative="1" as="geometry">
            <mxPoint x="560" y="120" as="sourcePoint" />
            <mxPoint x="770" y="123" as="targetPoint" />
            <Array as="points">
              <mxPoint x="770" y="123" />
            </Array>
          </mxGeometry>
        </mxCell>
        <mxCell id="AbVsz41TD_JJC3Mar6eJ-40" value="" style="endArrow=classic;startArrow=classic;html=1;rounded=0;" parent="1" edge="1">
          <mxGeometry width="50" height="50" relative="1" as="geometry">
            <mxPoint x="562.04" y="199.5" as="sourcePoint" />
            <mxPoint x="770" y="200" as="targetPoint" />
          </mxGeometry>
        </mxCell>
        <mxCell id="AbVsz41TD_JJC3Mar6eJ-41" value="" style="endArrow=classic;startArrow=classic;html=1;rounded=0;entryX=-0.075;entryY=0.848;entryDx=0;entryDy=0;entryPerimeter=0;" parent="1" target="AbVsz41TD_JJC3Mar6eJ-75" edge="1">
          <mxGeometry width="50" height="50" relative="1" as="geometry">
            <mxPoint x="560" y="295" as="sourcePoint" />
            <mxPoint x="760" y="296" as="targetPoint" />
            <Array as="points">
              <mxPoint x="690" y="296" />
            </Array>
          </mxGeometry>
        </mxCell>
        <mxCell id="AbVsz41TD_JJC3Mar6eJ-43" value="&lt;b&gt;&lt;i&gt;Request&lt;br&gt;&lt;/i&gt;&lt;/b&gt;" style="text;whiteSpace=wrap;html=1;" parent="1" vertex="1">
          <mxGeometry x="600" y="90" width="120" height="30" as="geometry" />
        </mxCell>
        <mxCell id="AbVsz41TD_JJC3Mar6eJ-44" value="&lt;b&gt;&lt;i&gt;Response&lt;/i&gt;&lt;/b&gt;" style="text;whiteSpace=wrap;html=1;" parent="1" vertex="1">
          <mxGeometry x="595" y="130" width="120" height="30" as="geometry" />
        </mxCell>
        <mxCell id="AbVsz41TD_JJC3Mar6eJ-45" value="&lt;b&gt;&lt;i&gt;Request&lt;br&gt;&lt;/i&gt;&lt;/b&gt;" style="text;whiteSpace=wrap;html=1;" parent="1" vertex="1">
          <mxGeometry x="600" y="265" width="60" height="15" as="geometry" />
        </mxCell>
        <mxCell id="AbVsz41TD_JJC3Mar6eJ-46" value="&lt;b&gt;&lt;i&gt;Request&lt;br&gt;&lt;/i&gt;&lt;/b&gt;" style="text;whiteSpace=wrap;html=1;" parent="1" vertex="1">
          <mxGeometry x="605" y="170" width="60" height="20" as="geometry" />
        </mxCell>
        <mxCell id="AbVsz41TD_JJC3Mar6eJ-47" value="&lt;b&gt;&lt;i&gt;Response&lt;/i&gt;&lt;/b&gt;" style="text;whiteSpace=wrap;html=1;" parent="1" vertex="1">
          <mxGeometry x="600" y="300" width="60" height="20" as="geometry" />
        </mxCell>
        <mxCell id="AbVsz41TD_JJC3Mar6eJ-51" value="Spring JPA" style="rounded=0;whiteSpace=wrap;html=1;" parent="1" vertex="1">
          <mxGeometry x="610" y="360" width="120" height="120" as="geometry" />
        </mxCell>
        <mxCell id="AbVsz41TD_JJC3Mar6eJ-52" value="" style="endArrow=classic;html=1;rounded=0;" parent="1" edge="1">
          <mxGeometry width="50" height="50" relative="1" as="geometry">
            <mxPoint x="620" y="120" as="sourcePoint" />
            <mxPoint x="620" y="357.85428571428565" as="targetPoint" />
          </mxGeometry>
        </mxCell>
        <mxCell id="AbVsz41TD_JJC3Mar6eJ-53" value="" style="endArrow=classic;html=1;rounded=0;exitX=0.9;exitY=0.067;exitDx=0;exitDy=0;exitPerimeter=0;" parent="1" edge="1">
          <mxGeometry width="50" height="50" relative="1" as="geometry">
            <mxPoint x="668" y="199.16" as="sourcePoint" />
            <mxPoint x="665" y="360.00428571428563" as="targetPoint" />
            <Array as="points">
              <mxPoint x="665" y="237.15" />
            </Array>
          </mxGeometry>
        </mxCell>
        <mxCell id="AbVsz41TD_JJC3Mar6eJ-48" value="&lt;b&gt;&lt;i&gt;Response&lt;/i&gt;&lt;/b&gt;" style="text;whiteSpace=wrap;html=1;" parent="1" vertex="1">
          <mxGeometry x="595" y="200" width="70" height="30" as="geometry" />
        </mxCell>
        <mxCell id="AbVsz41TD_JJC3Mar6eJ-66" value="" style="endArrow=classic;html=1;rounded=0;entryX=0.75;entryY=0;entryDx=0;entryDy=0;" parent="1" target="AbVsz41TD_JJC3Mar6eJ-51" edge="1">
          <mxGeometry width="50" height="50" relative="1" as="geometry">
            <mxPoint x="700" y="295" as="sourcePoint" />
            <mxPoint x="750" y="245" as="targetPoint" />
          </mxGeometry>
        </mxCell>
        <mxCell id="AbVsz41TD_JJC3Mar6eJ-67" value="" style="shape=cylinder3;whiteSpace=wrap;html=1;boundedLbl=1;backgroundOutline=1;size=15;" parent="1" vertex="1">
          <mxGeometry x="290" y="560" width="60" height="80" as="geometry" />
        </mxCell>
        <mxCell id="AbVsz41TD_JJC3Mar6eJ-69" value="" style="endArrow=classic;html=1;rounded=0;exitX=0.6;exitY=1.008;exitDx=0;exitDy=0;exitPerimeter=0;" parent="1" source="AbVsz41TD_JJC3Mar6eJ-51" edge="1">
          <mxGeometry width="50" height="50" relative="1" as="geometry">
            <mxPoint x="520" y="520" as="sourcePoint" />
            <mxPoint x="680" y="620" as="targetPoint" />
          </mxGeometry>
        </mxCell>
        <mxCell id="AbVsz41TD_JJC3Mar6eJ-71" value="" style="endArrow=classic;html=1;rounded=0;exitX=-0.008;exitY=0.658;exitDx=0;exitDy=0;exitPerimeter=0;entryX=1;entryY=0.5;entryDx=0;entryDy=0;" parent="1" source="AbVsz41TD_JJC3Mar6eJ-51" target="AbVsz41TD_JJC3Mar6eJ-25" edge="1">
          <mxGeometry width="50" height="50" relative="1" as="geometry">
            <mxPoint x="520" y="460" as="sourcePoint" />
            <mxPoint x="570" y="410" as="targetPoint" />
          </mxGeometry>
        </mxCell>
        <mxCell id="AbVsz41TD_JJC3Mar6eJ-72" value="" style="endArrow=classic;html=1;rounded=0;entryX=0;entryY=0;entryDx=0;entryDy=52.5;entryPerimeter=0;" parent="1" target="AbVsz41TD_JJC3Mar6eJ-67" edge="1">
          <mxGeometry width="50" height="50" relative="1" as="geometry">
            <mxPoint x="160" y="610" as="sourcePoint" />
            <mxPoint x="210" y="560" as="targetPoint" />
          </mxGeometry>
        </mxCell>
        <mxCell id="AbVsz41TD_JJC3Mar6eJ-73" value="" style="endArrow=classic;html=1;rounded=0;" parent="1" edge="1">
          <mxGeometry width="50" height="50" relative="1" as="geometry">
            <mxPoint x="160" y="310" as="sourcePoint" />
            <mxPoint x="160" y="610" as="targetPoint" />
          </mxGeometry>
        </mxCell>
        <mxCell id="AbVsz41TD_JJC3Mar6eJ-75" value="&lt;div&gt;O&lt;/div&gt;&lt;div&gt;A&lt;/div&gt;&lt;div&gt;u&lt;/div&gt;&lt;div&gt;t&lt;/div&gt;&lt;div&gt;h&lt;/div&gt;&lt;div&gt;&lt;br&gt;&lt;/div&gt;&lt;div&gt;S&lt;/div&gt;&lt;div&gt;e&lt;/div&gt;&lt;div&gt;c&lt;/div&gt;&lt;div&gt;u&lt;/div&gt;&lt;div&gt;r&lt;/div&gt;&lt;div&gt;i&lt;/div&gt;&lt;div&gt;t&lt;/div&gt;&lt;div&gt;y&lt;br&gt;&lt;/div&gt;" style="rounded=0;whiteSpace=wrap;html=1;" parent="1" vertex="1">
          <mxGeometry x="770" y="100" width="40" height="230" as="geometry" />
        </mxCell>
        <mxCell id="AbVsz41TD_JJC3Mar6eJ-78" value="" style="endArrow=classic;html=1;rounded=0;entryX=-0.008;entryY=0.229;entryDx=0;entryDy=0;entryPerimeter=0;" parent="1" target="AbVsz41TD_JJC3Mar6eJ-36" edge="1">
          <mxGeometry width="50" height="50" relative="1" as="geometry">
            <mxPoint x="810" y="125" as="sourcePoint" />
            <mxPoint x="860" y="75" as="targetPoint" />
          </mxGeometry>
        </mxCell>
        <mxCell id="AbVsz41TD_JJC3Mar6eJ-79" value="" style="endArrow=classic;html=1;rounded=0;entryX=-0.008;entryY=0.229;entryDx=0;entryDy=0;entryPerimeter=0;" parent="1" edge="1">
          <mxGeometry width="50" height="50" relative="1" as="geometry">
            <mxPoint x="811" y="295.5" as="sourcePoint" />
            <mxPoint x="900" y="294.5" as="targetPoint" />
          </mxGeometry>
        </mxCell>
        <mxCell id="AbVsz41TD_JJC3Mar6eJ-80" value="" style="endArrow=classic;html=1;rounded=0;entryX=-0.008;entryY=0.229;entryDx=0;entryDy=0;entryPerimeter=0;" parent="1" edge="1">
          <mxGeometry width="50" height="50" relative="1" as="geometry">
            <mxPoint x="810" y="201" as="sourcePoint" />
            <mxPoint x="899" y="200" as="targetPoint" />
          </mxGeometry>
        </mxCell>
        <mxCell id="AbVsz41TD_JJC3Mar6eJ-82" value="" style="endArrow=classic;html=1;rounded=0;exitX=-0.017;exitY=0.289;exitDx=0;exitDy=0;exitPerimeter=0;" parent="1" source="AbVsz41TD_JJC3Mar6eJ-36" edge="1">
          <mxGeometry width="50" height="50" relative="1" as="geometry">
            <mxPoint x="760" y="190" as="sourcePoint" />
            <mxPoint x="810" y="140" as="targetPoint" />
          </mxGeometry>
        </mxCell>
        <mxCell id="AbVsz41TD_JJC3Mar6eJ-83" value="" style="endArrow=classic;html=1;rounded=0;exitX=-0.017;exitY=0.289;exitDx=0;exitDy=0;exitPerimeter=0;" parent="1" edge="1">
          <mxGeometry width="50" height="50" relative="1" as="geometry">
            <mxPoint x="900" y="310" as="sourcePoint" />
            <mxPoint x="812" y="309" as="targetPoint" />
          </mxGeometry>
        </mxCell>
        <mxCell id="AbVsz41TD_JJC3Mar6eJ-84" value="" style="endArrow=classic;html=1;rounded=0;exitX=-0.017;exitY=0.289;exitDx=0;exitDy=0;exitPerimeter=0;" parent="1" edge="1">
          <mxGeometry width="50" height="50" relative="1" as="geometry">
            <mxPoint x="898" y="215.5" as="sourcePoint" />
            <mxPoint x="810" y="214.5" as="targetPoint" />
          </mxGeometry>
        </mxCell>
        <mxCell id="AbVsz41TD_JJC3Mar6eJ-85" value="Datastore" style="text;whiteSpace=wrap;html=1;" parent="1" vertex="1">
          <mxGeometry x="290" y="590" width="60" height="20" as="geometry" />
        </mxCell>
        <mxCell id="AbVsz41TD_JJC3Mar6eJ-88" value="&lt;div&gt;Code Repository&lt;/div&gt;&lt;div&gt;(Github, Bitbucket or Gitlab)&lt;br&gt;&lt;/div&gt;" style="shape=cylinder3;whiteSpace=wrap;html=1;boundedLbl=1;backgroundOutline=1;size=15;" parent="1" vertex="1">
          <mxGeometry x="900" y="450" width="80" height="110" as="geometry" />
        </mxCell>
        <mxCell id="AbVsz41TD_JJC3Mar6eJ-93" value="" style="endArrow=classic;html=1;rounded=0;entryX=0;entryY=0.5;entryDx=0;entryDy=0;entryPerimeter=0;exitX=1.002;exitY=0.954;exitDx=0;exitDy=0;exitPerimeter=0;" parent="1" source="AbVsz41TD_JJC3Mar6eJ-14" target="AbVsz41TD_JJC3Mar6eJ-88" edge="1">
          <mxGeometry width="50" height="50" relative="1" as="geometry">
            <mxPoint x="630" y="480" as="sourcePoint" />
            <mxPoint x="680" y="430" as="targetPoint" />
          </mxGeometry>
        </mxCell>
        <mxCell id="AbVsz41TD_JJC3Mar6eJ-94" value="Application hosting" style="ellipse;shape=cloud;whiteSpace=wrap;html=1;" parent="1" vertex="1">
          <mxGeometry x="730" y="640" width="150" height="110" as="geometry" />
        </mxCell>
        <mxCell id="AbVsz41TD_JJC3Mar6eJ-95" value="" style="endArrow=classic;html=1;rounded=0;entryX=0.4;entryY=0.1;entryDx=0;entryDy=0;entryPerimeter=0;exitX=0.875;exitY=1.006;exitDx=0;exitDy=0;exitPerimeter=0;" parent="1" source="AbVsz41TD_JJC3Mar6eJ-14" target="AbVsz41TD_JJC3Mar6eJ-94" edge="1">
          <mxGeometry width="50" height="50" relative="1" as="geometry">
            <mxPoint x="630" y="530" as="sourcePoint" />
            <mxPoint x="680" y="480" as="targetPoint" />
          </mxGeometry>
        </mxCell>
        <mxCell id="5Ud9nC-pEgyY8373Sr0N-1" value="" style="shape=cylinder3;whiteSpace=wrap;html=1;boundedLbl=1;backgroundOutline=1;size=15;" vertex="1" parent="1">
          <mxGeometry x="650" y="620" width="60" height="80" as="geometry" />
        </mxCell>
        <mxCell id="5Ud9nC-pEgyY8373Sr0N-2" value="Datastore" style="text;whiteSpace=wrap;html=1;" vertex="1" parent="1">
          <mxGeometry x="655" y="660" width="60" height="20" as="geometry" />
        </mxCell>
      </root>
    </mxGraphModel>
  </diagram>
</mxfile>
